<?xml version="1.0" encoding="UTF-8"?>
<svg version="1.1" viewBox="0 0 748 830.4" xmlns="http://www.w3.org/2000/svg">
	<defs>
		<style>.hero-a{fill:#132951;}.hero-b{fill:#f7f7f7;}.hero-c{fill:#fff;}.hero-d{fill:#ededed;}.hero-e{fill:#99f;}.hero-f{fill:#516a89;}.hero-g{fill:#eff9f9;}.hero-h{fill:#f73c60;}.hero-i{fill:#6969f9;}.hero-j{fill:#a0a0f9;}.hero-k{fill:#3e3ec1;}.hero-l{fill:#dcefee;}.hero-m{fill:#f2f2f2;}.hero-n{fill:#426b75;}.hero-o{fill:#ffbe2c;}.hero-p{fill:#cad4e0;}.hero-q{fill:#ddd;}.hero-r{fill:#a3721c;}.hero-s{fill:#5252d8;}.hero-t{fill:#7e9b8b;}.hero-u{fill:#a1b7ab;}.hero-v{fill:#577062;}.hero-w{fill:#b6ccc0;}.hero-x{fill:#d3e5db;}.hero-y{fill:#9e213f;}</style>
	</defs>
	<ellipse class="hero-a" transform="translate(214.6 654)" cx="161.8" cy="40.34" rx="161.8" ry="40.34"/>
	<path class="hero-b" transform="translate(158.8 83.57)" d="m495.9 100.8v395.2h-495.9v-338.5h151.9v-157.4h252.8v100.8z"/>
	<rect class="hero-c" transform="translate(357.1 283.2)" width="172.4" height="172.4"/>
	<path class="hero-d" transform="translate(563.6)" d="M184.345,0V184.357H91.164V83.574H0V0Z"/>
	<rect class="hero-c" transform="translate(158.8 83.57)" width="151.9" height="157.4"/>
	<path class="hero-d" transform="translate(110.4 40.59)" d="M200.41,0V42.982H48.465V200.41H0V0Z"/>
	<rect class="hero-d" transform="translate(496.3 244.8)" width="69.38" height="69.38"/>
	<ellipse class="hero-a" transform="translate(584.9 711.6)" cx="67.4" cy="19.86" rx="67.4" ry="19.86"/>
	<ellipse class="hero-a" transform="translate(56.46 698.1)" cx="72.34" cy="9.2" rx="72.34" ry="9.2"/>
	<path class="hero-e" transform="translate(104.4 445.6)" d="M7.919,0,2.526,20.879A9.191,9.191,0,0,1,0,21.208L5.54.023h.249C6.5.023,7.216.011,7.919,0Z"/>
	<path class="hero-f" transform="translate(76.84 701.5)" d="M66.294,2.907c0,.414-.989.809-2.773,1.167A89.164,89.164,0,0,1,52.978,5.238c-5.529.362-12.4.578-19.831.578S18.842,5.6,13.313,5.238A88.417,88.417,0,0,1,2.773,4.074C.989,3.714,0,3.32,0,2.907,0,1.3,14.839,0,33.147,0S66.294,1.3,66.294,2.907Z"/>
	<path class="hero-a" transform="translate(76.84 704.4)" d="M66.294,0V2.332c0,1.606-14.842,2.907-33.147,2.907S0,3.937,0,2.332V0C0,.414.989.809,2.773,1.167a88.59,88.59,0,0,0,10.54,1.165c5.529.362,12.4.578,19.834.578s14.3-.217,19.831-.578A89.164,89.164,0,0,0,63.521,1.167C65.306.809,66.294.414,66.294,0Z"/>
	<rect class="hero-g" transform="translate(106.8 532.2)" width="6.402" height="171.9"/>
	<path class="hero-g" transform="translate(0 512.8)" d="m220.7 9.676c0 1.377-3.293 2.69-9.229 3.885-7.715 1.541-19.89 2.881-35.09 3.876-18.4 1.2-41.26 1.924-66.01 1.924s-47.61-0.72-66.02-1.924c-15.2-0.994-27.37-2.325-35.08-3.876-5.938-1.195-9.23-2.508-9.23-3.885 0-5.344 49.39-9.676 110.3-9.676s110.3 4.332 110.3 9.676z"/>
	<path class="hero-f" transform="translate(0 522.5)" d="m220.7 0v7.762c0 5.344-49.4 9.676-110.3 9.676s-110.3-4.332-110.3-9.677v-7.761c0 1.377 3.292 2.69 9.229 3.885 7.715 1.55 19.88 2.881 35.08 3.875 18.4 1.2 41.26 1.924 66.02 1.924s47.61-0.72 66.01-1.924c15.2-0.994 27.38-2.335 35.09-3.876 5.937-1.193 9.23-2.506 9.23-3.884z"/>
	<path class="hero-b" transform="translate(92.17 438.5)" d="M37.012,2.617a.57.57,0,0,1-.023.136c-.544,1.382-9.256,2.492-18.92,2.492C8.089,5.246,0,4.067,0,2.617S8.089,0,18.07,0,37.012,1.167,37.012,2.617Z"/>
	<ellipse class="hero-f" transform="translate(100.7 521.1)" cx="18.65" cy="3.113" rx="18.65" ry="3.113"/>
	<path class="hero-b" transform="translate(92.44 443.4)" d="M36.367.057,23.848,79.994c0,.714-3.195,1.3-7.149,1.3s-7.149-.589-7.149-1.3L0,0C1.473,1.224,8.746,2.152,17.548,2.175L12.008,23.36a9.19,9.19,0,0,0,2.526-.328l5.393-20.88C27.847,2.028,34.713,1.156,36.367.057Z"/>
	<path class="hero-h" transform="translate(97.22 462.6)" d="M26.056,0,16.981,57.88c0,.5-2.243.918-5.03.918S6.91,58.379,6.91,57.88L0,0A.542.542,0,0,0,.215.249c.68,1.019,2.991,3.988,6.593,3.988a9.19,9.19,0,0,0,2.526-.328,5.915,5.915,0,0,0,3.388-2.152s.884,2.481,2.957,2.481S19.067,1.53,19.067,1.53s1.541,2.708,3.342,2.708c1.676,0,3.422-3.727,3.625-4.192A.117.117,0,0,1,26.056,0Z"/>
	<path class="hero-i" transform="translate(110 418)" d="M31.086,0V2.357L7.67,7.081,2.379,27.6c-.7.011-1.416.023-2.13.023H0L5.88,5.1Z"/>
	<circle class="hero-c" transform="translate(104.5 494.6)" cx="2.62" cy="2.62" r="2.62"/>
	<circle class="hero-c" transform="translate(110.6 485.7)" cx="1.991" cy="1.991" r="1.991"/>
	<circle class="hero-c" transform="translate(105.7 483.1)" cx=".996" cy=".996" r=".996"/>
	<path class="hero-c" transform="translate(92.17 441.1)" d="M36.99.136l-.2,1.3-.148.907c-1.8,1.2-9.788,2.118-18.569,2.118-8.916,0-16.314-.94-17.8-2.175l-.1-.816L0,0C0,.317.4.634,1.133.917c2.549,1,9.176,1.71,16.937,1.71S32.99,1.914,35.777.917C36.458.668,36.888.408,36.99.136Z"/>
	<path class="hero-i" transform="translate(358.5 408.9)" d="m0 0 19.14 3.105 1.559 43.24-18.85-2.77z"/>
	<path class="hero-j" transform="translate(358.5 407.8)" d="M0,1.144,2.318,0,20.97,2.929l-1.829,1.32Z"/>
	<path class="hero-k" transform="translate(377.7 410.7)" d="M1.829,0l1.89,43.31L1.564,44.556,0,1.319Z"/>
	<ellipse class="hero-c" transform="translate(360 411.8) rotate(-12.03)" cx="1.387" cy="1.71" rx="1.387" ry="1.71"/>
	<path class="hero-h" transform="translate(348.6 439.3)" d="m23.51 28.02a30.74 30.74 0 0 1-7.025-7.782c-2.375-4.219-21.35-11.93-15.3-16.6s18.01-4.277 23.02-1.981 17.08 13.6 18.44 20.72-9.619 11.31-9.619 11.31z"/>
	<path class="hero-h" transform="translate(380.6 442.1)" d="M7.329,12.529S7.134.907,4.351.085,0,4.708,0,4.708l.834,7.01Z"/>
	<path class="hero-g" transform="translate(262.8 382.3)" d="m66.16 296.4a240.3 240.3 0 0 0 50.25 20.9h0.04a192 192 0 0 0 49.92 7.508h0.013c90.41 1.24 160.3-67.34 163.1-169.1 3.251-119-77.24-151.5-77.24-151.5s-3.035-0.66-8.089-1.438c-14.75-2.323-46.66-5.806-70.29 2.494-31.72 11.12-53.19 102.5-84.73 129.6-8.036 6.9-31.18 18.41-51.86 33.92l-0.04 0.04c-39.27 29.48-69.66 73.4 28.92 127.6z"/>
	<path class="hero-l" transform="translate(429.2 385.1)" d="m0 322.1c90.41 1.24 160.3-67.34 163.1-169.1 3.251-119-77.24-151.5-77.24-151.5s-3.035-0.66-8.089-1.438l-15.42 42.69s80.58 0.831 63.43 103.3-81.36 170.6-125.8 176.1z"/>
	<path class="hero-m" transform="translate(392.3 335)" d="m28.92 89.5s-38.65-54.38-26.59-71.37 88.64-18.13 88.64-18.13l-29.7 25.05s-32.87 2.307-24.37 13.09 18.31 29.8 18.31 29.8z"/>
	<path class="hero-l" transform="translate(262.8 551.1)" d="m66.16 127.6a240.3 240.3 0 0 0 50.25 20.9h0.04c61.52 10.57 102.8-53.02 104-54.85-31.44 32.99-98.54 8.459-161.7-18.84-62.05-26.83-22.93-73.21-21.52-74.86-39.27 29.48-69.66 73.4 28.92 127.6z"/>
	<path class="hero-f" transform="translate(224.8 788.5)" d="M61.41,2.868S72.436,20.1,57.321,25.7,10.5,47.774.218,39.7C-3.7,36.62,46.432,0,46.432,0Z"/>
	<path class="hero-n" transform="translate(342.9 448.4)" d="m176.6 0a136.5 136.5 0 0 1-3.622 106.6c-18.02 38.4-49.69 77.61-101.6 62.81-80.67-23-71.1-45.99-71.1-45.99l106.8-59.34 32.34-30.23z"/>
	<path class="hero-a" transform="translate(447.5 371.2)" d="M0,9.494S-.071,21,7.186,24.191a12.651,12.651,0,0,0,12.7-1.264l.6-16.6L13.216,0Z"/>
	<path class="hero-h" transform="translate(456.8 369.7)" d="M3.947,33.172c4.79.976,15.306-10.754,16.428-16.375a56.711,56.711,0,0,0,.818-12.034L12.933,0,2.891,12.311s-.858,2.718-1.6,6c-.33,1.372-.62,2.824-.818,4.222C-.222,27.3-.843,32.2,3.947,33.172Z"/>
	<path class="hero-o" transform="translate(352.8 538)" d="m127.2 36.03s-5.9 39.18-49.58 37.5c-10.26-0.4-23.07 10.09-36.92 26.25-12.9-12.9-28.53-27.27-40.74-38.66a53.63 53.63 0 0 1 4.35-5.291c3.591-3.716 7.421-7.273 11.32-10.63a271.3 271.3 0 0 1 46.32-31.46l11.53-3.274 36.8-10.47z"/>
	<path class="hero-o" transform="translate(271.2 599.1)" d="m122.4 38.65c-7.239 8.446-14.78 18.46-22.39 29.28-14.26 20.24-28.8 43.33-42.23 64.37-23.98 37.56-44.47 68.6-53.53 65.22-10.72-4 0.317-40.97 17.72-82.45 10.28-24.5 22.77-50.6 34.32-72.39 9.787-18.49 18.88-33.9 25.38-42.68 12.21 11.38 27.84 25.75 40.74 38.65z"/>
	<path class="hero-p" transform="translate(459.3 279.1)" d="m37 45.37c-0.528 19.3 1.4 38.62 16.51 54.02 11.68 11.89 5.318 32.46 1.808 41.21 2.85 1.478 4.632 2.349 4.632 2.349s15.11-29.95 0-45.34-17.05-34.72-16.52-54.02c0.501-18.29-25.62-51.7-43.42-41.79 17.03-0.621 37.43 27.39 37 43.57z"/>
	<path class="hero-o" transform="translate(240.9 521.1)" d="m204.3 170.2c-5.914 7.84-36.92 0.611-72.17-20.2-0.974-0.577-2.016-1.212-3.1-1.881-2.843-1.744-6.016-3.773-9.358-5.914-5.709-3.659-11.9-7.636-17.68-11.09-4.656-2.787-9.867-6.3-15.42-10.38-44.11-32.43-109-100.3-78.83-115.4 33.99-16.99 130.1 12.04 130.1 12.04l39.07-8.1 8.565 18.1-11.53 3.274a271.3 271.3 0 0 0-46.32 31.46c-8.893 1.586-20.6 1.224-34.6-4.667-5.209-2.186 4.475 7.115 18.93 20.58 9.924 9.245 22.09 20.46 33.22 31.27q3.875 3.738 7.523 7.387c15.42 15.43 59.74 42.72 51.62 53.49z"/>
	<path class="hero-a" transform="translate(447.1 280.9)" d="m3.649 58.91c-0.581 2.731-1.2 6.083-1.61 9.434a35.03 35.03 0 0 1 4.1-7.864c0.409-0.528 0.633-0.779 0.633-0.779l3.114-2.692c2.151 1.293 4.117 2.6 5.9 3.879 11.9 8.577 15.86 16.76 13.76 23.08a19.3 19.3 0 0 0-0.924 9.87c0.633 3.365 1.082 10.96 0.1 15.12-1.847 7.93 27.25 23.87 38.82 29.85 3.51-8.748 9.87-29.32-1.808-41.21-15.1-15.4-17.03-34.72-16.5-54.02 0.437-16.18-19.96-44.19-37-43.57a19.31 19.31 0 0 0-6.571 6.374 27.67 27.67 0 0 0-4.13 10.44c-1.544 8.22-3.7 25.93 3.6 35.8 3e-3 -3e-3 -0.697 2.578-1.489 6.291z"/>
	<path class="hero-c" transform="translate(376.5 386.5)" d="m139.5 110.3s-5.132 8.112-5.132 24.07-12.59 67.18-52.34 50.94-46.65-22.54-60.46-28.42c-11.19-4.747-19.3-4.894-19.3-4.894s4.838-29.2 14.08-47.12c1.144-2.221 2.413-4.589 3.7-7.035-4.52-3.954-7.455-6.684-8.009-7.013-2.5-1.484-4.724 2.866-6.39 2.073s1.79-5.585 0.238-6.027-2.47 3.647-4.952 3.329 0.317-8.61 3.319-15.22 7.534-10.58 10.44-10.22 0.907 4.815 1.994 5.619 4.124-3.433 5.709-3.41-0.442 4.906 1.359 6.639a42.13 42.13 0 0 0 5.936 3.025c1.042-3.614 1.3-6.662 0.283-8.712-3.365-6.718-4.86-7.092-1.5-14.92s32.37-49.08 46.56-50.76c2.277-0.26 4.464-0.521 6.559-0.725-0.328 1.371-0.623 2.821-0.816 4.226-0.7 4.758-1.325 9.652 3.467 10.63s15.3-10.75 16.43-16.37c0 0 22.75 11.46 37.78 23.8 0.408 0.34 0.8 0.68 1.2 1.008 2.573 3.457 7.694 18.67-0.145 85.48z"/>
	<path class="hero-h" transform="translate(444.3 337.9)" d="M3.216,42.816a28.31,28.31,0,0,0,26.872-4.848c.459-.37.9-.75,1.321-1.131a19.415,19.415,0,0,1,.918-9.876c2.1-6.326-1.859-14.5-13.76-23.076Q15.9,1.954,12.678,0L9.554,2.7S7.281,5.1,4.818,11.344c-.526,1.344-1.075,2.877-1.6,4.6C.227,25.652-2.2,40.957,3.216,42.816Z"/>
	<path class="hero-h" transform="translate(271.2 714.2)" d="m4.232 82.45c9.058 3.381 29.54-27.65 53.53-65.22v-0.023s-17.56-0.201-35.82-17.21c-17.4 41.5-28.44 78.46-17.71 82.45z"/>
	<path class="hero-q" transform="translate(406.4 454.4)" d="m0 0s4.26 5.31 11.08 5.97a20.42 20.42 0 0 0 11.66-2.282z"/>
	<path class="hero-p" transform="translate(453.6 288.1)" d="m5.737 0a62.93 62.93 0 0 0-5.608 19.13c-0.989 9.9 4.046 20.12 4.046 20.12z"/>
	<path class="hero-h" transform="translate(360.6 630.4)" d="m84.63 60.87c-5.914 7.84-36.92 0.611-72.17-20.2-0.974-0.577-2.016-1.212-3.1-1.881-2.847-1.744-6.02-3.772-9.362-5.913 10.47-26.76 24.8-32.59 25.49-32.88q3.875 3.738 7.523 7.387c15.42 15.43 59.74 42.72 51.62 53.48z"/>
	<path class="hero-f" transform="translate(402.1 677.1)" d="m38.06 0.393s-46.3 54.42-36.77 63.48 47.75-31.98 49.04-41.48 3.643-25.07-12.26-22.01z"/>
	<path class="hero-h" transform="translate(514.9 410.3)" d="M1.2,1.008C.8.68.408.34,0,0A2.484,2.484,0,0,1,1.2,1.008Z"/>
	<path class="hero-q" transform="translate(383.5 458.5)" d="M0,12.882A31.842,31.842,0,0,1,2.538,6.644,22.44,22.44,0,0,1,7.9,0Z"/>
	<path class="hero-q" transform="translate(392 457)" d="M5.341,0A44.563,44.563,0,0,0,2.414,4.929,32.1,32.1,0,0,0,0,10.678Z"/>
	<path class="hero-q" transform="translate(382.4 454.3)" d="M6.618,0S5.255.7,3.554,3.754,0,10.686,0,10.686Z"/>
	<path class="hero-q" transform="translate(421.2 487.4)" d="M0,13.783S30.588,37.855,41.162,33.75,71.41,0,71.41,0,51.929,25.1,39.491,28.889C28.691,32.175,0,13.783,0,13.783Z"/>
	<path class="hero-q" transform="translate(468 418.8)" d="M33.674.883S23.7-2.229,15.281,3.232,0,30.582,0,30.582,12.9,8.315,19.7,6.049,33.674.883,33.674.883Z"/>
	<path class="hero-q" transform="translate(406.2 463.1)" d="M0,0,50.6,24.5a15.853,15.853,0,0,1,2.535,6.325c.628,3.776,0,5.476,0,5.476S49,27.053,46.1,25.165,0,0,0,0Z"/>
	<path class="hero-q" transform="translate(414.6 360)" d="m0 0a25.32 25.32 0 0 1 14.04 7.333z"/>
	<path class="hero-q" transform="translate(489.6 499.3)" d="M21.216,2.621S17.371-.778,10.2.166,0,2.621,0,2.621Z"/>
	<path class="hero-r" transform="translate(379.9 557.6)" d="M24.659,0S11.552,3.736,0,16.514Z"/>
	<path class="hero-r" transform="translate(289.8 557.6)" d="M44.112,20.983A114.892,114.892,0,0,1,18.127,11.92C4.154,5.122,0,0,0,0Z"/>
	<path class="hero-h" transform="translate(496.4 330.9)" d="M8.036.111s1.707-1.545,3.69,6.875-4.2,16.962-7.34,16.373S-5.268,0,8.036.111Z"/>
	<path class="hero-h" transform="translate(502.7 326.1)" d="M0,1.88S5.344-.858,5.809.275,3.8,4.24,1.735,4.9s-1.7.125-1.7.125Z"/>
	<path class="hero-i" transform="translate(516.1 193.4)" d="m96.21 115.3c-25.4 2.212-48.83-3.594-65.22-14.55l-30.99 7.952 15.38-22.87a42.16 42.16 0 0 1-7.717-20.66c-2.768-31.7 32.4-60.66 78.53-64.68s85.78 18.42 88.54 50.12-32.39 60.65-78.53 64.68z"/>
	<circle class="hero-s" transform="translate(578.8 249.9)" cx="5.891" cy="5.891" r="5.891"/>
	<circle class="hero-s" transform="translate(601.4 245.4)" cx="5.891" cy="5.891" r="5.891"/>
	<circle class="hero-s" transform="translate(624 240.8)" cx="5.891" cy="5.891" r="5.891"/>
	<path class="hero-f" transform="translate(610.8 611.3)" d="M68.44,90.257a34.22,34.22,0,1,1-68.44,0c0-.26.011-.518.011-.766v-.158c.011-.281.023-.564.034-.834a112.164,112.164,0,0,1,1.5-12.239c.654-3.955,1.487-8.272,2.378-12.734,3.775-18.685,8.9-39.815,8.9-46.408C12.825,6.7,2.727,0,2.727,0h63S55.615,6.7,55.615,17.119c0,6.593,5.138,27.723,8.9,46.408h.011c.834,4.159,1.6,8.181,2.231,11.912A113.917,113.917,0,0,1,68.395,88.5c.011.27.023.552.034.834v.158C68.44,89.739,68.44,90,68.44,90.257Z"/>
	<path class="hero-t" transform="translate(633 465.5)" d="m94.93 0s-11.65 10.52-22.93 31.55c-4.6 8.588-7.9 19.68-11.09 31.36l-11.54 0.191 7.8 13.52v0.011c-3.494 12.6-7.4 25.03-13.15 34.92-2.1 3.618-4.226 6.942-6.323 9.985l-16.78-1.161s4.012 7.483 7.359 13.41a97.31 97.31 0 0 1-11.87 11.95h-10.14s-8.644-31.55-5.635-54.84a103 103 0 0 1 1.972-10.72l16.78-7.325-13.31-3.989c6.2-16.51 17.72-32.91 37.75-46.71 0.371-0.26 0.744-0.507 1.1-0.755l12.33 0.141s0.493-3.874 1.273-8.582c23.17-12.97 36.39-12.97 36.39-12.97z"/>
	<path class="hero-u" transform="translate(642.1 476)" d="M67.8,0A289.278,289.278,0,0,0,42.057,28.734C38.1,33.8,34.32,39,30.817,44.383a155.057,155.057,0,0,0-9.571,16.659c-.733,1.422-1.352,2.9-2.032,4.34-.6,1.477-1.273,2.929-1.816,4.426l-.844,2.235-.777,2.276-1.545,4.554q-2.922,9.164-5.2,18.5-2.232,9.347-3.708,18.84c-.487,3.16-.909,6.331-1.242,9.5s-.605,6.382-.7,9.485L0,135.116c.174-3.331.512-6.527.925-9.76s.9-6.429,1.462-9.622q1.693-9.576,4.149-18.981,2.48-9.389,5.64-18.571l1.654-4.56.831-2.278.913-2.263c.589-1.517,1.3-2.979,1.951-4.467.724-1.452,1.388-2.935,2.163-4.359a156.626,156.626,0,0,1,10.041-16.6c3.648-5.334,7.563-10.472,11.646-15.467A290.01,290.01,0,0,1,67.8,0Z"/>
	<path class="hero-v" transform="translate(666.3 539.6)" d="M15.462,7.973a19.65,19.65,0,0,0-6.446-6.2A16.068,16.068,0,0,0,0,.085L7.325,5.344Z"/>
	<path class="hero-v" transform="translate(663 502.8)" d="M11.082,5.715a14.085,14.085,0,0,0-4.62-4.443A11.518,11.518,0,0,0,0,.061L5.25,3.83Z"/>
	<path class="hero-v" transform="translate(635.4 563.2)" d="M11.082,5.715a14.085,14.085,0,0,0-4.62-4.443A11.518,11.518,0,0,0,0,.061L5.25,3.83Z"/>
	<path class="hero-w" transform="translate(574.7 497.1)" d="M0,0S9.125,8.233,17.949,24.709c3.6,6.724,6.186,15.407,8.683,24.559l9.036.15L29.562,60.006v.009c2.735,9.866,5.8,19.6,10.3,27.347C41.5,90.2,43.169,92.8,44.81,95.181l13.14-.909s-3.142,5.859-5.762,10.5a76.139,76.139,0,0,0,9.292,9.354h7.942s6.769-24.709,4.412-42.94a80.551,80.551,0,0,0-1.544-8.392L59.15,57.058l10.422-3.124C64.718,41.006,55.7,28.167,40.01,17.357c-.291-.2-.582-.4-.865-.591l-9.654.11s-.386-3.033-1-6.72C10.36,0,0,0,0,0Z"/>
	<path class="hero-u" transform="translate(588.8 505.3)" d="m0 0a226.7 226.7 0 0 1 20.77 22.02 148.8 148.8 0 0 1 17.08 25.08c1.182 2.252 2.276 4.556 3.25 6.918 1.006 2.362 1.792 4.751 2.687 7.131q2.483 7.191 4.464 14.55 1.945 7.363 3.3 14.88a133 133 0 0 1 1.917 15.22l-3.379 0.092a130.5 130.5 0 0 0-1.483-14.83q-1.129-7.413-2.856-14.74-1.744-7.308-4.02-14.48c-0.815-2.362-1.55-4.787-2.454-7.1-0.882-2.327-1.886-4.614-2.984-6.859a147.5 147.5 0 0 0-16.2-25.32 226.2 226.2 0 0 0-20.09-22.55z"/>
	<path class="hero-t" transform="translate(610.8 555.1)" d="m0 6.244a15.39 15.39 0 0 1 5.047-4.854 12.58 12.58 0 0 1 7.06-1.324l-5.737 4.119z"/>
	<path class="hero-t" transform="translate(616.9 526.2)" d="M0,4.476A11.027,11.027,0,0,1,3.618,1,9.02,9.02,0,0,1,8.678.048L4.567,3Z"/>
	<path class="hero-t" transform="translate(636.6 570.4)" d="M0,4.476A11.027,11.027,0,0,1,3.618,1,9.02,9.02,0,0,1,8.678.048L4.567,3Z"/>
	<path class="hero-x" transform="translate(642.8 534.1)" d="M50.194,0s-6.161,5.559-12.12,16.685c-2.431,4.541-4.177,10.4-5.864,16.583l-6.1.1,4.123,7.151v.006c-1.847,6.662-3.915,13.234-6.953,18.466-1.109,1.912-2.234,3.671-3.343,5.28l-8.872-.614s2.122,3.957,3.891,7.091a51.371,51.371,0,0,1-6.275,6.316H3.316s-4.57-16.685-2.98-29A54.307,54.307,0,0,1,1.379,42.4l8.872-3.873L3.214,36.419c3.277-8.73,9.367-17.4,19.962-24.7.2-.137.393-.268.584-.4l6.519.075s.26-2.049.673-4.538C43.2,0,50.194,0,50.194,0Z"/>
	<path class="hero-u" transform="translate(646.8 539.6)" d="m36.65 0a152.7 152.7 0 0 0-13.45 15.32 99.34 99.34 0 0 0-10.8 17.14 66.9 66.9 0 0 0-3.595 9.407q-1.487 4.841-2.64 9.769a108.4 108.4 0 0 0-2.781 19.88l-3.379-0.092a110.8 110.8 0 0 1 3.664-20.41q1.364-4.977 3.086-9.834a66.92 66.92 0 0 1 4.09-9.5 100.7 100.7 0 0 1 11.67-16.9 153.1 153.1 0 0 1 14.13-14.78z"/>
	<path class="hero-w" transform="translate(660.5 573.3)" d="M8.175,4.216A10.389,10.389,0,0,0,4.767.939,8.494,8.494,0,0,0,0,.045L3.873,2.826Z"/>
	<path class="hero-w" transform="translate(658.7 553.8)" d="M5.859,3.022A7.452,7.452,0,0,0,3.417.673,6.083,6.083,0,0,0,0,.032L2.776,2.026Z"/>
	<path class="hero-w" transform="translate(644.1 585.7)" d="M5.859,3.022A7.452,7.452,0,0,0,3.417.673,6.091,6.091,0,0,0,0,.032L2.776,2.025Z"/>
	<path class="hero-a" transform="translate(645 611.3)" d="M34.214,90.257A34.221,34.221,0,0,1-.006,124.483L0,0H31.5S21.389,6.7,21.389,17.119c0,6.593,5.138,27.723,8.9,46.408H30.3c.834,4.159,1.6,8.181,2.231,11.912A113.915,113.915,0,0,1,34.169,88.5c.011.27.023.552.034.834v.158C34.214,89.739,34.214,90,34.214,90.257Z"/>
	<path class="hero-t" transform="translate(616.9 574.8)" d="M0,4.476A11.027,11.027,0,0,1,3.618,1,9.02,9.02,0,0,1,8.678.048L4.567,3Z"/>
	<path class="hero-h" transform="translate(232.9 340.1)" d="m51.17 74.96c16.52 1.439 31.76-2.337 42.42-9.46l20.15 5.172-10-14.87a27.42 27.42 0 0 0 5.018-13.44c1.794-20.61-21.07-39.45-51.08-42.06s-55.78 11.98-57.58 32.6 21.07 39.44 51.07 42.06z"/>
	<circle class="hero-y" transform="translate(298.2 376.8)" cx="3.831" cy="3.831" r="3.831"/>
	<circle class="hero-y" transform="translate(283.5 373.8)" cx="3.831" cy="3.831" r="3.831"/>
	<circle class="hero-y" transform="translate(268.8 370.9)" cx="3.831" cy="3.831" r="3.831"/>
</svg>
