<svg xmlns="http://www.w3.org/2000/svg" width="747.964" height="830.391" viewBox="0 0 747.964 830.391"><defs><style>.a{fill:#132951;}.b{fill:#f7f7f7;}.c{fill:#fff;}.d{fill:#ededed;}.e{fill:#99f;}.f{fill:#516a89;}.g{fill:#eff9f9;}.h{fill:#f73c60;}.i{fill:#6969f9;}.j{fill:#a0a0f9;}.k{fill:#3e3ec1;}.l{fill:#dcefee;}.m{fill:#f2f2f2;}.n{fill:#426b75;}.o{fill:#ffbe2c;}.p{fill:#cad4e0;}.q{fill:#ddd;}.r{fill:#a3721c;}.s{fill:#5252d8;}.t{fill:#7e9b8b;}.u{fill:#a1b7ab;}.v{fill:#577062;}.w{fill:#b6ccc0;}.x{fill:#d3e5db;}.y{fill:#9e213f;}</style></defs><ellipse class="a" cx="161.846" cy="40.341" rx="161.846" ry="40.341" transform="translate(214.607 654.032)"/><path class="b" d="M495.938,100.783V495.95H0V157.428H151.944V0h252.83V100.783Z" transform="translate(158.845 83.574)"/><rect class="c" width="172.354" height="172.354" transform="translate(357.114 283.194)"/><path class="d" d="M184.345,0V184.357H91.164V83.574H0V0Z" transform="translate(563.619)"/><rect class="c" width="151.944" height="157.428" transform="translate(158.845 83.574)"/><path class="d" d="M200.41,0V42.982H48.465V200.41H0V0Z" transform="translate(110.38 40.592)"/><rect class="d" width="69.378" height="69.378" transform="translate(496.344 244.821)"/><ellipse class="a" cx="67.404" cy="19.856" rx="67.404" ry="19.856" transform="translate(584.898 711.634)"/><ellipse class="a" cx="72.339" cy="9.2" rx="72.339" ry="9.2" transform="translate(56.465 698.142)"/><path class="e" d="M7.919,0,2.526,20.879A9.191,9.191,0,0,1,0,21.208L5.54.023h.249C6.5.023,7.216.011,7.919,0Z" transform="translate(104.447 445.583)"/><path class="f" d="M66.294,2.907c0,.414-.989.809-2.773,1.167A89.164,89.164,0,0,1,52.978,5.238c-5.529.362-12.4.578-19.831.578S18.842,5.6,13.313,5.238A88.417,88.417,0,0,1,2.773,4.074C.989,3.714,0,3.32,0,2.907,0,1.3,14.839,0,33.147,0S66.294,1.3,66.294,2.907Z" transform="translate(76.839 701.525)"/><path class="a" d="M66.294,0V2.332c0,1.606-14.842,2.907-33.147,2.907S0,3.937,0,2.332V0C0,.414.989.809,2.773,1.167a88.59,88.59,0,0,0,10.54,1.165c5.529.362,12.4.578,19.834.578s14.3-.217,19.831-.578A89.164,89.164,0,0,0,63.521,1.167C65.306.809,66.294.414,66.294,0Z" transform="translate(76.839 704.432)"/><rect class="g" width="6.402" height="171.946" transform="translate(106.785 532.198)"/><path class="g" d="M220.663,9.676c0,1.377-3.293,2.69-9.229,3.885-7.715,1.541-19.891,2.881-35.093,3.876-18.4,1.2-41.258,1.924-66.009,1.924s-47.614-.72-66.018-1.924c-15.2-.994-27.369-2.325-35.084-3.876C3.292,12.366,0,11.053,0,9.676,0,4.332,49.393,0,110.331,0S220.663,4.332,220.663,9.676Z" transform="translate(0 512.837)"/><path class="f" d="M220.663,0V7.762c0,5.344-49.4,9.676-110.331,9.676S0,13.106,0,7.761V0C0,1.377,3.292,2.69,9.229,3.885,16.944,5.435,29.11,6.766,44.313,7.76c18.4,1.2,41.258,1.924,66.018,1.924s47.606-.72,66.009-1.924c15.2-.994,27.378-2.335,35.093-3.876C217.37,2.691,220.663,1.378,220.663,0Z" transform="translate(0 522.512)"/><path class="b" d="M37.012,2.617a.57.57,0,0,1-.023.136c-.544,1.382-9.256,2.492-18.92,2.492C8.089,5.246,0,4.067,0,2.617S8.089,0,18.07,0,37.012,1.167,37.012,2.617Z" transform="translate(92.17 438.528)"/><ellipse class="f" cx="18.646" cy="3.113" rx="18.646" ry="3.113" transform="translate(100.705 521.114)"/><path class="b" d="M36.367.057,23.848,79.994c0,.714-3.195,1.3-7.149,1.3s-7.149-.589-7.149-1.3L0,0C1.473,1.224,8.746,2.152,17.548,2.175L12.008,23.36a9.19,9.19,0,0,0,2.526-.328l5.393-20.88C27.847,2.028,34.713,1.156,36.367.057Z" transform="translate(92.437 443.43)"/><path class="h" d="M26.056,0,16.981,57.88c0,.5-2.243.918-5.03.918S6.91,58.379,6.91,57.88L0,0A.542.542,0,0,0,.215.249c.68,1.019,2.991,3.988,6.593,3.988a9.19,9.19,0,0,0,2.526-.328,5.915,5.915,0,0,0,3.388-2.152s.884,2.481,2.957,2.481S19.067,1.53,19.067,1.53s1.541,2.708,3.342,2.708c1.676,0,3.422-3.727,3.625-4.192A.117.117,0,0,1,26.056,0Z" transform="translate(97.223 462.557)"/><path class="i" d="M31.086,0V2.357L7.67,7.081,2.379,27.6c-.7.011-1.416.023-2.13.023H0L5.88,5.1Z" transform="translate(109.987 417.985)"/><circle class="c" cx="2.62" cy="2.62" r="2.62" transform="translate(104.452 494.601)"/><circle class="c" cx="1.991" cy="1.991" r="1.991" transform="translate(110.626 485.716)"/><circle class="c" cx="0.996" cy="0.996" r="0.996" transform="translate(105.709 483.086)"/><path class="c" d="M36.99.136l-.2,1.3-.148.907c-1.8,1.2-9.788,2.118-18.569,2.118-8.916,0-16.314-.94-17.8-2.175l-.1-.816L0,0C0,.317.4.634,1.133.917c2.549,1,9.176,1.71,16.937,1.71S32.99,1.914,35.777.917C36.458.668,36.888.408,36.99.136Z" transform="translate(92.17 441.145)"/><path class="i" d="M0,0,19.141,3.105,20.7,46.342,1.854,43.572Z" transform="translate(358.541 408.926)"/><path class="j" d="M0,1.144,2.318,0,20.97,2.929l-1.829,1.32Z" transform="translate(358.541 407.783)"/><path class="k" d="M1.829,0l1.89,43.31L1.564,44.556,0,1.319Z" transform="translate(377.682 410.712)"/><ellipse class="c" cx="1.387" cy="1.71" rx="1.387" ry="1.71" transform="translate(360.009 411.805) rotate(-12.029)"/><path class="h" d="M23.512,28.017a30.739,30.739,0,0,1-7.025-7.782c-2.375-4.219-21.354-11.929-15.3-16.6S19.195-.642,24.211,1.654s17.082,13.6,18.443,20.717-9.619,11.312-9.619,11.312Z" transform="translate(348.586 439.311)"/><path class="h" d="M7.329,12.529S7.134.907,4.351.085,0,4.708,0,4.708l.834,7.01Z" transform="translate(380.635 442.09)"/><path class="g" d="M66.156,296.427a240.288,240.288,0,0,0,50.247,20.9h.04a192.048,192.048,0,0,0,49.917,7.508h.013c90.412,1.24,160.346-67.335,163.1-169.134C332.724,36.67,252.233,4.183,252.233,4.183s-3.035-.66-8.089-1.438c-14.752-2.323-46.657-5.806-70.29,2.494-31.721,11.124-53.189,102.512-84.726,129.575-8.036,6.9-31.18,18.407-51.857,33.925l-.04.04C-2.035,198.256-32.424,242.183,66.156,296.427Z" transform="translate(262.816 382.317)"/><path class="l" d="M0,322.091c90.412,1.24,160.346-67.335,163.1-169.134C166.351,33.925,85.86,1.438,85.86,1.438S82.825.778,77.771,0L62.346,42.686s80.582.831,63.429,103.278S44.415,316.589,0,322.091Z" transform="translate(429.189 385.062)"/><path class="m" d="M28.922,89.5S-9.724,35.12,2.329,18.127,90.964,0,90.964,0l-29.7,25.05s-32.87,2.307-24.373,13.091S55.2,67.944,55.2,67.944Z" transform="translate(392.299 334.989)"/><path class="l" d="M66.156,127.649a240.284,240.284,0,0,0,50.247,20.9h.04c61.516,10.569,102.83-53.018,104-54.852C189,126.686,121.906,102.156,58.754,74.856-3.3,48.03,35.821,1.65,37.233,0-2.036,29.478-32.424,73.4,66.156,127.649Z" transform="translate(262.816 551.095)"/><path class="f" d="M61.41,2.868S72.436,20.1,57.321,25.7,10.5,47.774.218,39.7C-3.7,36.62,46.432,0,46.432,0Z" transform="translate(224.837 788.505)"/><path class="n" d="M176.64,0a136.5,136.5,0,0,1-3.622,106.624c-18.022,38.4-49.693,77.607-101.569,62.813-80.672-23-71.1-45.988-71.1-45.988L107.192,64.108l32.336-30.231Z" transform="translate(342.886 448.354)"/><path class="a" d="M0,9.494S-.071,21,7.186,24.191a12.651,12.651,0,0,0,12.7-1.264l.6-16.6L13.216,0Z" transform="translate(447.496 371.22)"/><path class="h" d="M3.947,33.172c4.79.976,15.306-10.754,16.428-16.375a56.711,56.711,0,0,0,.818-12.034L12.933,0,2.891,12.311s-.858,2.718-1.6,6c-.33,1.372-.62,2.824-.818,4.222C-.222,27.3-.843,32.2,3.947,33.172Z" transform="translate(456.766 369.703)"/><path class="o" d="M127.236,36.027s-5.9,39.176-49.575,37.5c-10.264-.4-23.066,10.094-36.921,26.25C27.835,86.872,12.212,72.506,0,61.121A53.633,53.633,0,0,1,4.35,55.83c3.591-3.716,7.421-7.273,11.317-10.626A271.309,271.309,0,0,1,61.992,13.742l11.533-3.274L110.322,0Z" transform="translate(352.847 538.027)"/><path class="o" d="M122.377,38.654C115.138,47.1,107.6,57.109,99.991,67.929c-14.263,20.245-28.8,43.333-42.234,64.371-23.984,37.556-44.466,68.6-53.53,65.221-10.717-4,.317-40.966,17.719-82.452,10.275-24.5,22.771-50.6,34.316-72.392C66.049,24.187,75.147,8.78,81.638,0,93.85,11.385,109.473,25.75,122.377,38.654Z" transform="translate(271.208 599.148)"/><path class="p" d="M37,45.37c-.528,19.3,1.4,38.622,16.507,54.021,11.678,11.888,5.318,32.46,1.808,41.208,2.85,1.478,4.632,2.349,4.632,2.349s15.108-29.953,0-45.338S42.9,62.893,43.425,43.589C43.926,25.3,17.8-8.11,0,1.8,17.034,1.179,37.434,29.193,37,45.37Z" transform="translate(459.302 279.1)"/><path class="o" d="M204.295,170.173c-5.914,7.84-36.921.611-72.166-20.2-.974-.577-2.016-1.212-3.1-1.881-2.843-1.744-6.016-3.773-9.358-5.914-5.709-3.659-11.9-7.636-17.685-11.091-4.656-2.787-9.867-6.3-15.419-10.378C42.46,88.275-22.456,20.425,7.736,5.335,41.723-11.658,137.827,17.378,137.827,17.378l39.074-8.1,8.565,18.1-11.533,3.274a271.309,271.309,0,0,0-46.324,31.461c-8.893,1.586-20.6,1.224-34.6-4.667C87.8,55.26,97.484,64.561,111.94,78.031c9.924,9.245,22.092,20.46,33.217,31.268q3.875,3.738,7.523,7.387C168.1,132.118,212.418,159.41,204.295,170.173Z" transform="translate(240.906 521.114)"/><path class="a" d="M3.649,58.913c-.581,2.731-1.2,6.083-1.61,9.434a35.029,35.029,0,0,1,4.1-7.864c.409-.528.633-.779.633-.779l3.114-2.692c2.151,1.293,4.117,2.6,5.9,3.879,11.9,8.577,15.861,16.758,13.763,23.079a19.3,19.3,0,0,0-.924,9.87c.633,3.365,1.082,10.965.1,15.122-1.847,7.93,27.248,23.87,38.82,29.847,3.51-8.748,9.87-29.319-1.808-41.208-15.1-15.4-17.031-34.717-16.5-54.021C49.674,27.4,29.274-.61,12.239.01A19.311,19.311,0,0,0,5.668,6.384a27.67,27.67,0,0,0-4.13,10.438c-1.544,8.22-3.7,25.928,3.6,35.8C5.141,52.619,4.441,55.2,3.649,58.913Z" transform="translate(447.061 280.89)"/><path class="c" d="M139.521,110.287s-5.132,8.112-5.132,24.074S121.8,201.543,82.049,185.3,35.4,162.764,21.586,156.884c-11.193-4.747-19.3-4.894-19.3-4.894s4.838-29.2,14.082-47.117c1.144-2.221,2.413-4.589,3.7-7.035-4.52-3.954-7.455-6.684-8.009-7.013-2.5-1.484-4.724,2.866-6.39,2.073s1.79-5.585.238-6.027S3.437,90.518.955,90.2s.317-8.61,3.319-15.215S11.808,64.4,14.709,64.767s.907,4.815,1.994,5.619,4.124-3.433,5.709-3.41-.442,4.906,1.359,6.639a42.133,42.133,0,0,0,5.936,3.025c1.042-3.614,1.3-6.662.283-8.712-3.365-6.718-4.86-7.092-1.5-14.92S60.862,3.931,75.047,2.243c2.277-.26,4.464-.521,6.559-.725-.328,1.371-.623,2.821-.816,4.226-.7,4.758-1.325,9.652,3.467,10.626S99.562,5.619,100.684,0c0,0,22.748,11.465,37.782,23.8.408.34.8.68,1.2,1.008C142.239,28.265,147.36,43.48,139.521,110.287Z" transform="translate(376.452 386.502)"/><path class="h" d="M3.216,42.816a28.31,28.31,0,0,0,26.872-4.848c.459-.37.9-.75,1.321-1.131a19.415,19.415,0,0,1,.918-9.876c2.1-6.326-1.859-14.5-13.76-23.076Q15.9,1.954,12.678,0L9.554,2.7S7.281,5.1,4.818,11.344c-.526,1.344-1.075,2.877-1.6,4.6C.227,25.652-2.2,40.957,3.216,42.816Z" transform="translate(444.279 337.898)"/><path class="h" d="M4.232,82.452c9.058,3.381,29.536-27.652,53.53-65.22v-.023S40.206,17.008,21.945,0C4.545,41.5-6.495,78.455,4.232,82.452Z" transform="translate(271.208 714.211)"/><path class="q" d="M0,0S4.26,5.31,11.077,5.97A20.416,20.416,0,0,0,22.733,3.688Z" transform="translate(406.438 454.427)"/><path class="p" d="M5.737,0A62.926,62.926,0,0,0,.129,19.133c-.989,9.9,4.046,20.122,4.046,20.122Z" transform="translate(453.564 288.091)"/><path class="h" d="M84.628,60.871c-5.914,7.84-36.921.611-72.166-20.2-.974-.577-2.016-1.212-3.1-1.881C6.515,37.046,3.342,35.018,0,32.877,10.468,6.118,24.8.283,25.49,0q3.875,3.738,7.523,7.387C48.432,22.817,92.751,50.108,84.628,60.871Z" transform="translate(360.572 630.415)"/><path class="f" d="M38.063.393s-46.3,54.421-36.77,63.484S49.044,31.9,50.328,22.4,53.971-2.67,38.063.393Z" transform="translate(402.086 677.068)"/><path class="h" d="M1.2,1.008C.8.68.408.34,0,0A2.484,2.484,0,0,1,1.2,1.008Z" transform="translate(514.919 410.304)"/><path class="q" d="M0,12.882A31.842,31.842,0,0,1,2.538,6.644,22.44,22.44,0,0,1,7.9,0Z" transform="translate(383.457 458.478)"/><path class="q" d="M5.341,0A44.563,44.563,0,0,0,2.414,4.929,32.1,32.1,0,0,0,0,10.678Z" transform="translate(391.958 457.041)"/><path class="q" d="M6.618,0S5.255.7,3.554,3.754,0,10.686,0,10.686Z" transform="translate(382.421 454.292)"/><path class="q" d="M0,13.783S30.588,37.855,41.162,33.75,71.41,0,71.41,0,51.929,25.1,39.491,28.889C28.691,32.175,0,13.783,0,13.783Z" transform="translate(421.221 487.364)"/><path class="q" d="M33.674.883S23.7-2.229,15.281,3.232,0,30.582,0,30.582,12.9,8.315,19.7,6.049,33.674.883,33.674.883Z" transform="translate(467.982 418.816)"/><path class="q" d="M0,0,50.6,24.5a15.853,15.853,0,0,1,2.535,6.325c.628,3.776,0,5.476,0,5.476S49,27.053,46.1,25.165,0,0,0,0Z" transform="translate(406.161 463.142)"/><path class="q" d="M0,0A25.32,25.32,0,0,1,14.038,7.333Z" transform="translate(414.612 360.039)"/><path class="q" d="M21.216,2.621S17.371-.778,10.2.166,0,2.621,0,2.621Z" transform="translate(489.573 499.283)"/><path class="r" d="M24.659,0S11.552,3.736,0,16.514Z" transform="translate(379.903 557.579)"/><path class="r" d="M44.112,20.983A114.892,114.892,0,0,1,18.127,11.92C4.154,5.122,0,0,0,0Z" transform="translate(289.804 557.58)"/><path class="h" d="M8.036.111s1.707-1.545,3.69,6.875-4.2,16.962-7.34,16.373S-5.268,0,8.036.111Z" transform="translate(496.351 330.912)"/><path class="h" d="M0,1.88S5.344-.858,5.809.275,3.8,4.24,1.735,4.9s-1.7.125-1.7.125Z" transform="translate(502.651 326.123)"/><path class="i" d="M96.211,115.264c-25.4,2.212-48.829-3.594-65.222-14.547L0,108.669,15.385,85.8A42.157,42.157,0,0,1,7.668,65.142C4.9,33.446,40.063,4.482,86.2.465s85.778,18.418,88.543,50.122S142.349,111.239,96.211,115.264Z" transform="translate(516.12 193.38)"/><circle class="s" cx="5.891" cy="5.891" r="5.891" transform="translate(578.849 249.896)"/><circle class="s" cx="5.891" cy="5.891" r="5.891" transform="translate(601.447 245.352)"/><circle class="s" cx="5.891" cy="5.891" r="5.891" transform="translate(624.044 240.81)"/><path class="f" d="M68.44,90.257a34.22,34.22,0,1,1-68.44,0c0-.26.011-.518.011-.766v-.158c.011-.281.023-.564.034-.834a112.164,112.164,0,0,1,1.5-12.239c.654-3.955,1.487-8.272,2.378-12.734,3.775-18.685,8.9-39.815,8.9-46.408C12.825,6.7,2.727,0,2.727,0h63S55.615,6.7,55.615,17.119c0,6.593,5.138,27.723,8.9,46.408h.011c.834,4.159,1.6,8.181,2.231,11.912A113.917,113.917,0,0,1,68.395,88.5c.011.27.023.552.034.834v.158C68.44,89.739,68.44,90,68.44,90.257Z" transform="translate(610.758 611.253)"/><path class="t" d="M94.927,0S83.275,10.515,72,31.554c-4.6,8.588-7.9,19.676-11.09,31.363l-11.54.191,7.8,13.523v.011c-3.494,12.6-7.4,25.03-13.151,34.924-2.1,3.618-4.226,6.942-6.323,9.985l-16.78-1.161s4.012,7.483,7.359,13.411a97.309,97.309,0,0,1-11.867,11.946H6.271S-2.373,114.194.636,90.911A103.028,103.028,0,0,1,2.608,80.194l16.78-7.325L6.079,68.88c6.2-16.509,17.715-32.907,37.753-46.712.371-.26.744-.507,1.1-.755l12.329.141s.493-3.874,1.273-8.582C81.7,0,94.927,0,94.927,0Z" transform="translate(632.983 465.505)"/><path class="u" d="M67.8,0A289.278,289.278,0,0,0,42.057,28.734C38.1,33.8,34.32,39,30.817,44.383a155.057,155.057,0,0,0-9.571,16.659c-.733,1.422-1.352,2.9-2.032,4.34-.6,1.477-1.273,2.929-1.816,4.426l-.844,2.235-.777,2.276-1.545,4.554q-2.922,9.164-5.2,18.5-2.232,9.347-3.708,18.84c-.487,3.16-.909,6.331-1.242,9.5s-.605,6.382-.7,9.485L0,135.116c.174-3.331.512-6.527.925-9.76s.9-6.429,1.462-9.622q1.693-9.576,4.149-18.981,2.48-9.389,5.64-18.571l1.654-4.56.831-2.278.913-2.263c.589-1.517,1.3-2.979,1.951-4.467.724-1.452,1.388-2.935,2.163-4.359a156.626,156.626,0,0,1,10.041-16.6c3.648-5.334,7.563-10.472,11.646-15.467A290.01,290.01,0,0,1,67.8,0Z" transform="translate(642.073 476.023)"/><path class="v" d="M15.462,7.973a19.65,19.65,0,0,0-6.446-6.2A16.068,16.068,0,0,0,0,.085L7.325,5.344Z" transform="translate(666.332 539.619)"/><path class="v" d="M11.082,5.715a14.085,14.085,0,0,0-4.62-4.443A11.518,11.518,0,0,0,0,.061L5.25,3.83Z" transform="translate(662.981 502.761)"/><path class="v" d="M11.082,5.715a14.085,14.085,0,0,0-4.62-4.443A11.518,11.518,0,0,0,0,.061L5.25,3.83Z" transform="translate(635.371 563.241)"/><path class="w" d="M0,0S9.125,8.233,17.949,24.709c3.6,6.724,6.186,15.407,8.683,24.559l9.036.15L29.562,60.006v.009c2.735,9.866,5.8,19.6,10.3,27.347C41.5,90.2,43.169,92.8,44.81,95.181l13.14-.909s-3.142,5.859-5.762,10.5a76.139,76.139,0,0,0,9.292,9.354h7.942s6.769-24.709,4.412-42.94a80.551,80.551,0,0,0-1.544-8.392L59.15,57.058l10.422-3.124C64.718,41.006,55.7,28.167,40.01,17.357c-.291-.2-.582-.4-.865-.591l-9.654.11s-.386-3.033-1-6.72C10.36,0,0,0,0,0Z" transform="translate(574.714 497.06)"/><path class="u" d="M0,0A226.709,226.709,0,0,1,20.767,22.015,148.8,148.8,0,0,1,37.844,47.1c1.182,2.252,2.276,4.556,3.25,6.918,1.006,2.362,1.792,4.751,2.687,7.131Q46.264,68.34,48.245,75.7q1.945,7.363,3.3,14.878a132.977,132.977,0,0,1,1.917,15.22l-3.379.092A130.452,130.452,0,0,0,48.6,91.058q-1.129-7.413-2.856-14.737Q44,69.013,41.724,61.838c-.815-2.362-1.55-4.787-2.454-7.1-.882-2.327-1.886-4.614-2.984-6.859a147.492,147.492,0,0,0-16.2-25.325A226.209,226.209,0,0,0,0,0Z" transform="translate(588.836 505.296)"/><path class="t" d="M0,6.244A15.389,15.389,0,0,1,5.047,1.39,12.581,12.581,0,0,1,12.107.066L6.37,4.185Z" transform="translate(610.825 555.094)"/><path class="t" d="M0,4.476A11.027,11.027,0,0,1,3.618,1,9.02,9.02,0,0,1,8.678.048L4.567,3Z" transform="translate(616.878 526.233)"/><path class="t" d="M0,4.476A11.027,11.027,0,0,1,3.618,1,9.02,9.02,0,0,1,8.678.048L4.567,3Z" transform="translate(636.573 570.366)"/><path class="x" d="M50.194,0s-6.161,5.559-12.12,16.685c-2.431,4.541-4.177,10.4-5.864,16.583l-6.1.1,4.123,7.151v.006c-1.847,6.662-3.915,13.234-6.953,18.466-1.109,1.912-2.234,3.671-3.343,5.28l-8.872-.614s2.122,3.957,3.891,7.091a51.371,51.371,0,0,1-6.275,6.316H3.316s-4.57-16.685-2.98-29A54.307,54.307,0,0,1,1.379,42.4l8.872-3.873L3.214,36.419c3.277-8.73,9.367-17.4,19.962-24.7.2-.137.393-.268.584-.4l6.519.075s.26-2.049.673-4.538C43.2,0,50.194,0,50.194,0Z" transform="translate(642.836 534.072)"/><path class="u" d="M36.647,0A152.749,152.749,0,0,0,23.195,15.321a99.342,99.342,0,0,0-10.8,17.14A66.9,66.9,0,0,0,8.8,41.868Q7.313,46.709,6.16,51.637A108.389,108.389,0,0,0,3.379,71.513L0,71.421a110.805,110.805,0,0,1,3.664-20.41q1.364-4.977,3.086-9.834a66.923,66.923,0,0,1,4.09-9.5,100.651,100.651,0,0,1,11.673-16.9A153.061,153.061,0,0,1,36.647,0Z" transform="translate(646.848 539.634)"/><path class="w" d="M8.175,4.216A10.389,10.389,0,0,0,4.767.939,8.494,8.494,0,0,0,0,.045L3.873,2.826Z" transform="translate(660.471 573.259)"/><path class="w" d="M5.859,3.022A7.452,7.452,0,0,0,3.417.673,6.083,6.083,0,0,0,0,.032L2.776,2.026Z" transform="translate(658.699 553.771)"/><path class="w" d="M5.859,3.022A7.452,7.452,0,0,0,3.417.673,6.091,6.091,0,0,0,0,.032L2.776,2.025Z" transform="translate(644.1 585.749)"/><path class="a" d="M34.214,90.257A34.221,34.221,0,0,1-.006,124.483L0,0H31.5S21.389,6.7,21.389,17.119c0,6.593,5.138,27.723,8.9,46.408H30.3c.834,4.159,1.6,8.181,2.231,11.912A113.915,113.915,0,0,1,34.169,88.5c.011.27.023.552.034.834v.158C34.214,89.739,34.214,90,34.214,90.257Z" transform="translate(644.983 611.253)"/><path class="t" d="M0,4.476A11.027,11.027,0,0,1,3.618,1,9.02,9.02,0,0,1,8.678.048L4.567,3Z" transform="translate(616.878 574.836)"/><path class="h" d="M51.171,74.958c16.52,1.439,31.755-2.337,42.415-9.46l20.152,5.172-10-14.87a27.419,27.419,0,0,0,5.018-13.437C110.55,21.751,87.684,2.915,57.68.3S1.9,12.28.1,32.9,21.166,72.34,51.171,74.958Z" transform="translate(232.935 340.051)"/><circle class="y" cx="3.831" cy="3.831" r="3.831" transform="translate(298.217 376.804)"/><circle class="y" cx="3.831" cy="3.831" r="3.831" transform="translate(283.522 373.85)"/><circle class="y" cx="3.831" cy="3.831" r="3.831" transform="translate(268.826 370.896)"/></svg>