<svg xmlns="http://www.w3.org/2000/svg" xmlns:xlink="http://www.w3.org/1999/xlink" width="826" height="1080" viewBox="0 0 826 1080"><defs><style>.a{fill:#fff;}.b{clip-path:url(#a);}.c{fill:url(#b);}.d{fill:url(#c);}.e{fill:url(#d);}.f{fill:url(#e);}.g{fill:url(#f);}.h{fill:url(#i);}.i{fill:url(#l);}.j{filter:url(#m);}.k{filter:url(#j);}.l{filter:url(#g);}</style><clipPath id="a"><rect class="a" width="826" height="1080"/></clipPath><linearGradient id="b" x1="0.224" y1="0.86" x2="0.776" y2="0.14" gradientUnits="objectBoundingBox"><stop offset="0" stop-color="#feaf01"/><stop offset="0.52" stop-color="#ff803c"/><stop offset="1" stop-color="#ff5176"/></linearGradient><linearGradient id="c" x1="0.194" y1="0.86" x2="0.806" y2="0.14" gradientUnits="objectBoundingBox"><stop offset="0" stop-color="#fe0096"/><stop offset="0.52" stop-color="#f602bd"/><stop offset="1" stop-color="#ee03e4"/></linearGradient><linearGradient id="d" x1="0.195" y1="0.86" x2="0.805" y2="0.14" gradientUnits="objectBoundingBox"><stop offset="0" stop-color="#a500b5"/><stop offset="0.52" stop-color="#d20597"/><stop offset="1" stop-color="#ff0a79"/></linearGradient><linearGradient id="e" x1="0.194" y1="0.86" x2="0.806" y2="0.14" gradientUnits="objectBoundingBox"><stop offset="0" stop-color="#7619fd"/><stop offset="0.52" stop-color="#980dd5"/><stop offset="1" stop-color="#b900ac"/></linearGradient><linearGradient id="f" x1="0.201" y1="0.86" x2="0.799" y2="0.14" gradientUnits="objectBoundingBox"><stop offset="0" stop-color="#24daff"/><stop offset="0.52" stop-color="#596dff"/><stop offset="1" stop-color="#8d00ff"/></linearGradient><filter id="g" x="7.112" y="284.373" width="1070.809" height="1062.374" filterUnits="userSpaceOnUse"><feOffset input="SourceAlpha"/><feGaussianBlur stdDeviation="29.5" result="h"/><feFlood flood-opacity="0.431"/><feComposite operator="in" in2="h"/><feComposite in="SourceGraphic"/></filter><linearGradient id="i" x1="0.211" y1="0.86" x2="0.789" y2="0.14" gradientUnits="objectBoundingBox"><stop offset="0" stop-color="#0092ff"/><stop offset="0.48" stop-color="#12b6ff"/><stop offset="1" stop-color="#24daff"/></linearGradient><filter id="j" x="126.021" y="439.052" width="1011.488" height="973.894" filterUnits="userSpaceOnUse"><feOffset input="SourceAlpha"/><feGaussianBlur stdDeviation="28.5" result="k"/><feFlood flood-opacity="0.412"/><feComposite operator="in" in2="k"/><feComposite in="SourceGraphic"/></filter><linearGradient id="l" x1="0.233" y1="0.86" x2="0.767" y2="0.14" gradientUnits="objectBoundingBox"><stop offset="0" stop-color="#00c9ff"/><stop offset="0.48" stop-color="#52e4d7"/><stop offset="1" stop-color="#a3ffaf"/></linearGradient><filter id="m" x="270.182" y="556.987" width="870.972" height="787.342" filterUnits="userSpaceOnUse"><feOffset dx="6.356" dy="12.474" input="SourceAlpha"/><feGaussianBlur stdDeviation="24.5" result="n"/><feFlood flood-opacity="0.212"/><feComposite operator="in" in2="n"/><feComposite in="SourceGraphic"/></filter></defs><rect class="a" width="826" height="1080"/><g class="b"><path class="c" d="M340.75,690.455c79.873,5.558,155.966-4.6,231.226-22.79,74.578-18.748,148.322-45.533,207.682-86.13,59.623-40.384,145.355-61.2,169.145-129.7,25.009-67.5-73.166-186.03-68.888-258.781,3.12-73.7,69.93-126.365,74.6-166.777,3.085-41.709,5.285-67.815-35.2-111.746-36.6-40.765-104.8-188.743-220.48-160.983C584.052-218.41,469.087-368.828,392.908-371.372c-81.7-7.051-103.742,47.191-115.111,117.49C267.135-183,251.192-109.08,189.589-70.311,131.472-28.7,29.462-20.8-58.813-4.9c-43.482,8.487-81.8,20.385-107.29,41.293-25.915,20.559-39,50.127-41.862,85.91-2.691,74.045,128.063,178,77.855,244.518C-208.889,474.477-54.44,500.654-16.043,542.885c38.782,42.545,80.512,70.516,141.9,96.9C185.588,664.806,264.977,688.241,340.75,690.455Z"/><path class="d" d="M306.89,1081.49c72.179,5.558,140.942-4.6,208.953-22.79,67.394-18.749,134.035-45.534,187.677-86.132,53.879-40.385,131.353-61.206,152.852-129.7,22.6-67.505-66.118-186.036-62.252-258.789,2.819-73.7,63.193-126.369,67.418-166.781,2.787-41.711-1.663-63.178-31.815-111.75-31.736-51.131-121.508-290.36-198.614-165.856C574.535,231.041,422.865,22.173,354.024,19.628,280.191,12.578,179.274,83.7,169,154c-9.635,70.879,26.669,134.23-29,173C87.481,368.612,25.588,370.207-54.183,386.112c-39.293,8.487-73.923,20.385-96.955,41.294-23.419,20.559-35.24,50.128-37.83,85.912-2.432,74.048,115.727,178.007,70.355,244.525C-189.8,865.5-50.232,891.679-15.533,933.912c35.047,42.546,72.756,70.518,128.234,96.9C166.675,1055.84,238.417,1079.27,306.89,1081.49Z"/><path class="e" d="M327.89,1174.49c72.179,5.558,140.942-4.6,208.953-22.79,67.394-18.749,134.035-45.534,187.677-86.132,53.879-40.385,131.353-61.206,152.852-129.7,22.6-67.505-66.118-186.036-62.252-258.789,2.819-73.7,63.194-126.369,67.418-166.782,2.787-41.711,4.767-67.817-31.815-111.75C817.649,357.781,756.015,209.8,651.481,237.56,547.756,265.6,443.865,115.173,375.024,112.628,301.191,105.577,336.8,212.149,297,271c-29.362,43.413-97.278,38.162-105.709,142.7-4.519,65.612-144.7,49.509-224.474,65.414-39.293,8.487-73.923,20.385-96.955,41.294-23.419,20.559-35.24,50.128-37.83,85.912C-170.4,680.366-52.242,784.325-97.613,850.843-168.8,958.5-29.232,984.679,5.467,1026.91c35.047,42.547,72.756,70.518,128.234,96.9C187.675,1148.84,259.417,1172.27,327.89,1174.49Z"/><path class="f" d="M403.89,1325.49c72.179,5.558,140.942-4.6,208.953-22.791,67.394-18.749,134.035-45.534,187.677-86.132,53.879-40.385,131.353-61.206,152.852-129.7,22.6-67.505-66.118-186.036-62.252-258.789,2.819-73.7,63.193-126.369,67.418-166.781,2.787-41.711,4.768-67.817-31.815-111.75C893.649,508.781,832.015,360.8,727.481,388.56,623.756,416.6,519.865,266.173,451.024,263.628c-73.833-7.05-93.748,47.193-104.024,117.494C337.367,452,322.959,525.928,267.29,564.7c-52.519,41.612-144.7,49.509-224.474,65.414C3.523,638.6-31.107,650.5-54.139,671.406c-23.419,20.559-35.24,50.128-37.83,85.912C-94.4,831.366,23.758,935.325-21.613,1001.84-92.8,1109.5,46.768,1135.68,81.467,1177.91c35.047,42.546,72.756,70.518,128.234,96.9C263.675,1299.84,335.417,1323.27,403.89,1325.49Z"/><g class="l" transform="matrix(1, 0, 0, 1, 0, 0)"><path class="g" d="M525.441,1258.05c61.23,1.825,119.3-9.214,176.584-26.871,56.756-18.094,112.735-42.8,157.466-78.441,44.935-35.469,110.193-55.663,127.215-113.14,17.972-56.7-59.225-151.323-57.211-211.642,1.111-61.061,51.334-106.94,54.211-140.526,1.638-34.6,2.863-56.272-28.883-91.2-28.72-32.446-83.487-152.469-171.544-125.5C695.911,497.906,562.35,372.462,504,373c-62.658-3-50.517,47.462-58,106-6.932,58.99-2.963,120.878-49.441,155.08-43.762,36.432-121.7,46.5-188.991,62.719-33.133,8.528-62.258,19.7-81.4,37.875-19.479,17.9-28.979,42.812-30.552,72.507C94.836,868.514,209.717,914.245,137,977c-81.35,72.241,82.676,137.778,112.8,171.374,30.421,33.843,62.845,55.529,110.29,75.218C406.237,1242.22,467.407,1258.85,525.441,1258.05Z"/></g><g class="k" transform="matrix(1, 0, 0, 1, 0, 0)"><path class="h" d="M510.8,1312.21c54.474,14.78,108.874,17.354,164,13.832,54.742-4.027,110.209-14.151,157.943-36.479,47.881-22.133,110.692-26.218,138.288-74.062,28.28-46.943-20.573-148.3-5.815-201.91,14.108-54.471,68.963-84.8,78.753-114.271,8.9-30.653,14.649-49.8-6.3-87.916C1018.9,776.172,995.6,656.876,910.9,662.14c-84.122,5.593-139.445-121.75-191.846-133.794-55.5-16.136-79.571,21.325-98.848,72.168C601.331,651.88,578.3,704.813,529.3,725.48c-47.036,23.248-119.037,15.539-182.815,15.623-31.521.528-60.017,4.284-81.075,16.46-21.3,11.859-35.16,32.138-42.947,58.406C208.6,870.758,282.4,965.6,236.81,1008.45c-72.065,69.684,30.769,109.755,50.544,146.323,19.991,36.853,44.388,63.244,82.674,91.071C407.381,1272.44,458.622,1300.47,510.8,1312.21Z"/></g><g class="j" transform="matrix(1, 0, 0, 1, 0, 0)"><path class="i" d="M649.392,1250.91c44.166,9.381,87.725,9.02,131.589,3.759,43.535-5.647,87.376-16.194,124.491-36.141,37.242-19.8,87.219-25.85,107.106-65.276,20.474-38.736-23.094-117.49-13.719-160.951,8.818-44.118,51.261-70.767,57.755-94.735,5.729-24.869,9.46-40.415-8.979-69.914C1031.06,800.349,978.267,771.982,911,781c-65.043,8.719-87.141-150.561-139.488-160.585C724.953,609.582,688.109,636.55,675,678c-12.768,41.851,15.2,121.323-23,140-36.517,20.651-108.561-18.684-159.489-15.783-25.148,1.821-47.736,6.086-64.006,16.743-16.476,10.414-26.634,27.221-31.672,48.54-8.612,44.36-141.413,97.807,20.106,153.045,76.194,24.857,29.5,86.265,46.941,114.583,17.621,28.536,38.29,48.524,70.115,69.041C565.019,1223.74,607.2,1243.85,649.392,1250.91Z"/></g></g></svg>