<svg xmlns="http://www.w3.org/2000/svg" fill="currentColor" viewBox="0 0 34 34">><path d="M20,3A17,17,0,1,0,37,20,17,17,0,0,0,20,3ZM10.083,30.116c1.653-4.958,6.612-3.023,7.437-5.709V22.617a4.727,4.727,0,0,1-1.547-2.642c-.293-.025-.752-.316-.888-1.465a1.086,1.086,0,0,1,.391-1.072,5.7,5.7,0,0,1-.436-1.982c0-2.935,1.455-5.372,4.96-5.372a2.608,2.608,0,0,1,2.479,1.342c1.691,0,2.479,1.854,2.479,4.029a5.049,5.049,0,0,1-.436,1.982,1.084,1.084,0,0,1,.392,1.072c-.136,1.149-.595,1.439-.888,1.465a4.72,4.72,0,0,1-1.547,2.642v1.791c.826,2.687,5.784.752,7.438,5.711a14.165,14.165,0,0,1-19.833,0Z" transform="translate(-3 -3)"/></svg>
