<svg xmlns="http://www.w3.org/2000/svg" fill="currentColor" viewBox="0 0 35.638 28"><path d="M8.637,4a3.818,3.818,0,1,0,3.818,3.818A3.818,3.818,0,0,0,8.637,4ZM29,4a3.818,3.818,0,1,0,3.818,3.818A3.818,3.818,0,0,0,29,4ZM18.819,10.364a3.818,3.818,0,1,0,3.818,3.818,3.818,3.818,0,0,0-3.818-3.818ZM8.637,16.727a3.818,3.818,0,1,0,3.818,3.818A3.818,3.818,0,0,0,8.637,16.727Zm20.364,0a3.818,3.818,0,1,0,3.818,3.818A3.818,3.818,0,0,0,29,16.727ZM8.635,26.909c-2.781,0-6.351,1.735-7.378,3.07A1.262,1.262,0,0,0,2.268,32H15a1.262,1.262,0,0,0,1.012-2.021C14.987,28.644,11.415,26.909,8.635,26.909Zm20.364,0c-2.781,0-6.351,1.735-7.378,3.07A1.262,1.262,0,0,0,22.632,32H35.364a1.262,1.262,0,0,0,1.012-2.021C35.35,28.644,31.779,26.909,29,26.909Z" transform="translate(-0.997 -4)"/></svg>
