<svg xmlns="http://www.w3.org/2000/svg" fill="currentColor" viewBox="0 0 39.515 26.344"><path d="M11.855,4a6.587,6.587,0,0,0-6.586,6.586V11.9a6.586,6.586,0,1,0,13.172,0V10.586A6.587,6.587,0,0,0,11.855,4ZM27.661,4a6.587,6.587,0,0,0-6.586,6.586V11.9a6.586,6.586,0,1,0,13.172,0V10.586A6.587,6.587,0,0,0,27.661,4ZM11.855,6.634a3.956,3.956,0,0,1,3.952,3.952V11.9a3.952,3.952,0,0,1-7.9,0V10.586A3.956,3.956,0,0,1,11.855,6.634Zm0,14.489C7.535,21.123,2,23.592.4,26.279c-.984,1.66-.047,4.065,1.569,4.065H37.545c1.616,0,2.552-2.405,1.567-4.065-1.594-2.687-7.136-5.156-11.453-5.156a17.585,17.585,0,0,0-7.9,2.158A17.618,17.618,0,0,0,11.852,21.123Zm0,2.634c3.649,0,8.179,2.161,9.189,3.864a.244.244,0,0,1,.026.087H2.64a.273.273,0,0,1,.028-.087C3.68,25.919,8.2,23.758,11.852,23.758Z" transform="translate(0 -4)"/></svg>
