<svg xmlns="http://www.w3.org/2000/svg" fill="currentColor" viewBox="0 0 20 20"><defs><style>.setting-a{stroke:#ff62a7;stroke-linecap:round;stroke-linejoin:round;stroke-miterlimit:10;stroke-width:2px;}</style></defs><g transform="translate(1.001 1)"><path class="setting-a" d="M-582.935,8154a1.638,1.638,0,0,1-1.635-1.637v-.074a1.35,1.35,0,0,0-.884-1.236,1.336,1.336,0,0,0-.544-.115,1.349,1.349,0,0,0-.946.385l-.049.049a1.626,1.626,0,0,1-1.156.481,1.629,1.629,0,0,1-1.158-.481,1.628,1.628,0,0,1-.481-1.158,1.627,1.627,0,0,1,.481-1.156l.049-.049a1.347,1.347,0,0,0,.27-1.49,1.351,1.351,0,0,0-1.236-.819h-.139a1.638,1.638,0,0,1-1.637-1.635,1.639,1.639,0,0,1,1.637-1.637h.074a1.342,1.342,0,0,0,1.236-.884,1.347,1.347,0,0,0-.27-1.49l-.049-.047a1.637,1.637,0,0,1-.481-1.158,1.628,1.628,0,0,1,.481-1.158,1.625,1.625,0,0,1,1.158-.479,1.623,1.623,0,0,1,1.156.479l.049.049a1.341,1.341,0,0,0,.944.385,1.338,1.338,0,0,0,.546-.115h.065a1.35,1.35,0,0,0,.819-1.236v-.139A1.637,1.637,0,0,1-583,8136a1.638,1.638,0,0,1,1.637,1.635v.074a1.351,1.351,0,0,0,.819,1.236,1.337,1.337,0,0,0,.546.115,1.333,1.333,0,0,0,.942-.385l.049-.049a1.65,1.65,0,0,1,1.158-.479,1.65,1.65,0,0,1,1.158.479,1.651,1.651,0,0,1,.479,1.159,1.651,1.651,0,0,1-.479,1.158l-.049.047a1.344,1.344,0,0,0-.27,1.49v.065a1.353,1.353,0,0,0,1.236.819h.139A1.638,1.638,0,0,1-574,8145a1.637,1.637,0,0,1-1.635,1.635h-.074a1.351,1.351,0,0,0-1.236.818,1.344,1.344,0,0,0,.27,1.49l.049.049a1.625,1.625,0,0,1,.479,1.156,1.628,1.628,0,0,1-.479,1.158,1.65,1.65,0,0,1-1.158.481,1.65,1.65,0,0,1-1.158-.481l-.049-.049a1.343,1.343,0,0,0-.944-.385,1.337,1.337,0,0,0-.544.115,1.351,1.351,0,0,0-.819,1.236v.139A1.639,1.639,0,0,1-582.935,8154Zm-.065-11.456a2.457,2.457,0,0,0-2.454,2.456,2.456,2.456,0,0,0,2.454,2.454,2.457,2.457,0,0,0,2.456-2.454A2.458,2.458,0,0,0-583,8142.545Z" transform="translate(592 -8136)"/></g></svg>
