<svg xmlns="http://www.w3.org/2000/svg" width="118" height="104.592" viewBox="0 0 118 104.592"><defs><style>.a,.c,.d{fill:#e83f62;}.a{font-size:23px;}.a,.d{font-family:Poppins-SemiBold, Poppins;font-weight:600;}.b{fill:#313c90;}.d{font-size:22px;}</style></defs><g transform="translate(0 0)"><text class="a" transform="translate(0 96.592)"><tspan x="0" y="0">GO</tspan><tspan class="b" y="0">NOTIFY</tspan></text><g transform="translate(6.484)"><path class="c" d="M182.217,267.926a2.658,2.658,0,1,1,1.882-.778A2.658,2.658,0,0,1,182.217,267.926Z" transform="translate(-142.586 -208.529)"/><text class="d" transform="translate(34.733 37.619)"><tspan x="0" y="0">G</tspan><tspan class="b" y="0">O</tspan></text><path class="c" d="M237.367,72.822a2.658,2.658,0,0,1-1.983-.89L224.2,59.394h-2.967a2.661,2.661,0,1,1,0-5.319H225.4a2.677,2.677,0,0,1,1.985.89l8.688,9.744,2.3-8.659a2.663,2.663,0,0,1,2.57-1.975h4.353c1.623-.037,2.615-.243,2.615-3.53a30.853,30.853,0,0,0-.4-4.419q-.012-.072-.019-.142-.049-.513-.105-1.044a49.862,49.862,0,0,1-.336-5.208c-.06-4.658,1.17-7.986,3.8-10.144a9.293,9.293,0,0,1-1.349-1.351c-1.7-2.09-2.5-4.942-2.453-8.743a48.016,48.016,0,0,1,.348-5.187c.033-.311.064-.618.095-.906a.342.342,0,0,1,.012-.111,32.566,32.566,0,0,0,.412-4.53c0-3.223-1-3.41-2.644-3.445A2.661,2.661,0,0,1,245.388,0c2.93.066,7.846,1.291,7.846,8.764a36.983,36.983,0,0,1-.447,5.22c-.029.286-.06.581-.093.881a43.36,43.36,0,0,0-.319,4.644v.035c-.068,5.23,1.728,6.575,5.292,7.337a2.663,2.663,0,0,1,2.1,2.6v.171a2.658,2.658,0,0,1-2.1,2.6c-3.565.764-5.354,2.123-5.292,7.423v.035a44.63,44.63,0,0,0,.311,4.683c.035.344.07.682.1,1.013a35.131,35.131,0,0,1,.449,5.148,9.716,9.716,0,0,1-1.689,6.1A7.529,7.529,0,0,1,245.39,59.4h-2.4l-3.052,11.445a2.661,2.661,0,0,1-1.952,1.9A2.749,2.749,0,0,1,237.367,72.822Z" transform="translate(-173.506 0.003)"/><path class="b" d="M300.018,5.309A2.661,2.661,0,1,1,301.9,4.53a2.658,2.658,0,0,1-1.882.778Z" transform="translate(-236.127 0.013)"/><path class="b" d="M99.5,59.394h-.06a7.529,7.529,0,0,1-6.157-2.749,9.716,9.716,0,0,1-1.689-6.1,34.849,34.849,0,0,1,.449-5.148c.033-.332.066-.669.1-1.013a44.633,44.633,0,0,0,.317-4.672v-.035c.07-5.3-1.728-6.66-5.292-7.423a2.658,2.658,0,0,1-2.109-2.6V29.48a2.663,2.663,0,0,1,2.1-2.6c3.565-.762,5.354-2.107,5.292-7.337v-.035a43.358,43.358,0,0,0-.319-4.644c-.033-.3-.064-.6-.093-.881a36.983,36.983,0,0,1-.449-5.22c0-7.471,4.915-8.7,7.846-8.762h24.078a2.661,2.661,0,0,1,0,5.319H99.528c-1.623.037-2.615.241-2.615,3.445a32.515,32.515,0,0,0,.412,4.53.342.342,0,0,0,.012.111c.031.294.062.6.095.906A48.014,48.014,0,0,1,97.78,19.5c.047,3.793-.754,6.653-2.453,8.743a9.294,9.294,0,0,1-1.349,1.351c2.632,2.158,3.861,5.486,3.8,10.144a49.834,49.834,0,0,1-.336,5.208q-.056.531-.105,1.044a.569.569,0,0,1-.019.142,30.83,30.83,0,0,0-.4,4.421c0,3.295,1,3.5,2.642,3.532a2.659,2.659,0,0,1-.056,5.317Z" transform="translate(-67.544 0.003)"/></g></g></svg>